<svg xmlns="http://www.w3.org/2000/svg"><defs><font id="Orbitron" horiz-adv-x="674"><font-face alphabetic="0" ascent="1011" descent="-243" font-family="Orbitron ExtraBold" panose-1="0 0 0 0 0 0 0 0 0 0" units-per-em="1000"/><glyph horiz-adv-x="314"/><glyph d="M58 201V720H200V201H58ZM58 0V142H200V0H58Z" horiz-adv-x="220" unicode="!"/><glyph d="M217 517V708H358V517H217ZM40 517V708H181V517H40Z" horiz-adv-x="392" unicode="&quot;"/><glyph d="M63 0L111 160H32V302H154L194 426H61V568H239L288 720H434L382 568H540L589 720H734L682 568H754V426H638L598 302H725V160H552L505 0H362L411 160H252L207 0H63ZM298 302H454L493 426H338L298 302Z" horiz-adv-x="797" unicode="#"/><glyph d="M318 -100V0H178Q116 0 75 42T34 144V201H176V176Q176 145 178 144T210 142H317V286H178Q117 286 76 327T34 431V576Q34 637 75 678T178 720H318V821H460V720H599Q661 720 702 679T743 576V518H601V544Q601 574 600 576T567 578H460V428H599Q661 428 702 387T743 289V144Q743 84 702 42T600 0H460V-100H318ZM210 428H317V578H210Q179 578 178 577T176 544V462Q176 431 177 430T210 428ZM460 142H568Q598 142 599 144T601 176V252Q601 283 600 284T567 286H460V142Z" horiz-adv-x="788" unicode="$"/><glyph d="M134 0V149L800 718L845 719V571L180 2L134 0ZM182 373Q123 373 86 410T48 506V580Q48 639 85 676T182 713H265Q323 713 361 676T399 580V506Q399 448 361 411T265 373H182ZM197 489H249Q263 489 273 497T283 523V564Q283 582 275 590T249 598H197Q179 598 171 590T163 564V523Q163 505 171 497T197 489ZM696 7Q638 7 601 45T563 141V215Q563 274 600 311T696 348H779Q837 348 875 311T913 215V141Q913 83 875 45T779 7H696ZM712 123H764Q781 123 789 131T798 156V199Q798 217 790 225T764 233H712Q694 233 686 225T678 199V156Q678 139 686 131T712 123Z" horiz-adv-x="966" unicode="%"/><glyph d="M194 0Q137 0 95 41T53 141V331Q53 353 66 376T105 412Q90 433 90 472V578Q90 638 132 678T231 719H593Q645 719 685 686T735 603V520H593V542Q593 572 591 574T559 576H266Q235 576 234 574T232 542V457L620 262V363H762V202L880 132V-13L741 67Q720 37 688 19T621 0H194ZM228 142H520Q542 142 540 143T560 148L218 320L203 327Q199 327 197 322T195 281V181Q195 146 197 144T228 142Z" horiz-adv-x="938" unicode="&amp;"/><glyph d="M59 516V708H201V516H59Z" horiz-adv-x="247" unicode="'"/><glyph d="M193 0Q135 0 94 42T52 141V579Q52 637 93 678T193 720H254V578H228Q198 578 196 576T194 544V176Q194 146 196 144T228 142H254V0H193Z" horiz-adv-x="291" unicode="("/><glyph d="M56 0V142H81Q112 142 113 144T115 176V544Q115 574 114 576T81 578H56V720H117Q175 720 216 679T258 579V141Q258 84 217 42T117 0H56Z" horiz-adv-x="294" unicode=")"/><glyph d="M184 269L68 353L140 451L25 488L68 625L183 586V708H326V586L442 625L485 488L370 451L442 353L328 269L254 367L184 269Z" horiz-adv-x="512" unicode="*"/><glyph d="M150 88V225H17V367H150V501H292V367H430V225H292V88H150Z" horiz-adv-x="452" unicode="+"/><glyph d="M54 -133V133H196V11Q196 -41 155 -81T54 -133Z" horiz-adv-x="235" unicode=","/><glyph d="M59 225V367H472V225H59Z" horiz-adv-x="517" unicode="-"/><glyph d="M54 0V142H196V0H54Z" horiz-adv-x="230" unicode="."/><glyph d="M6 0V147L473 719L520 720V574L54 2L6 0Z" horiz-adv-x="521" unicode="/"/><glyph d="M199 0Q141 0 99 46T57 150V575Q57 634 99 677T199 720H625Q683 720 725 677T767 575V150Q767 92 725 46T625 0H199ZM270 150H591Q622 150 623 152T625 184V448L270 150ZM199 277L554 574H233Q203 574 201 573T199 541V277Z" horiz-adv-x="834" unicode="0"/><glyph d="M234 0V509L189 454H1L225 720H376V0H234Z" horiz-adv-x="391" unicode="1"/><glyph d="M57 0V278Q57 336 99 377T199 419H591Q622 419 623 420T625 453V544Q625 574 624 576T591 578H233Q203 578 201 576T199 544V519H57V579Q57 637 99 678T199 720H625Q683 720 725 679T767 579V418Q767 360 725 318T625 276H233Q203 276 201 274T199 242V176Q199 146 201 144T233 142H767V0H57Z" horiz-adv-x="830" unicode="2"/><glyph d="M195 0Q137 0 95 42T53 141V191H195V176Q195 146 197 144T229 142H587Q618 142 619 144T621 176V258Q621 289 620 290T587 292H174V434H560Q590 434 592 436T594 468V544Q594 574 592 576T560 578H229Q199 578 197 576T195 544V521H53V579Q53 637 95 678T195 720H594Q653 720 694 679T735 579V434Q735 422 734 410T729 387Q745 368 754 344T763 293V141Q763 84 722 42T622 0H195Z" horiz-adv-x="826" unicode="3"/><glyph d="M448 0V180H6V310L460 720H590V323H688V180H590V0H448ZM233 323H448V501L233 323Z" horiz-adv-x="730" unicode="4"/><glyph d="M199 0Q141 0 99 42T57 141V193H199V176Q199 146 201 144T233 142H591Q622 142 623 144T625 176V261Q625 291 624 293T591 295H57V720H767V578H233Q203 578 201 576T199 544V471Q199 441 201 439T233 437H625Q683 437 725 396T767 296V141Q767 84 725 42T625 0H199Z" horiz-adv-x="830" unicode="5"/><glyph d="M199 0Q141 0 99 42T57 141V579Q57 637 99 678T199 720H655V578H233Q203 578 201 576T199 544V472Q199 442 201 440T233 438H625Q683 438 725 397T767 297V141Q767 84 725 42T625 0H199ZM233 142H591Q622 142 623 144T625 176V261Q625 291 624 293T591 295H199V176Q199 146 201 144T233 142Z" horiz-adv-x="820" unicode="6"/><glyph d="M459 0V545Q459 575 458 577T426 579H3V721H460Q519 721 560 680T601 580V0H459Z" horiz-adv-x="660" unicode="7"/><glyph d="M199 0Q141 0 99 42T57 141V296Q57 314 62 331T76 366Q68 382 63 400T57 437V579Q57 637 99 678T199 720H625Q677 720 717 687T767 604V437Q767 420 762 401T748 366Q758 349 762 332T767 296V141Q767 84 725 42T625 0H199ZM233 142H591Q622 142 623 144T625 176V261Q625 291 624 293T591 295H233Q203 295 201 293T199 261V176Q199 146 201 144T233 142ZM233 427H591Q622 427 623 429T625 461V543Q625 573 624 575T591 577H233Q203 577 201 575T199 543V461Q199 431 201 429T233 427Z" horiz-adv-x="834" unicode="8"/><glyph d="M196 0Q144 0 104 41T52 142H588Q618 142 620 144T622 176V251Q622 281 620 283T588 285H196Q137 285 96 326T54 427V579Q54 637 95 678T196 720H623Q681 720 722 679T764 579V141Q764 84 723 42T623 0H196ZM230 428H622V544Q622 574 620 576T588 578H230Q200 578 199 576T197 544V461Q197 431 198 430T230 428Z" horiz-adv-x="828" unicode="9"/><glyph d="M54 438V581H196V438H54ZM54 0V142H196V0H54Z" horiz-adv-x="242" unicode=":"/><glyph d="M52 -133V133H194V11Q194 -41 153 -81T52 -133ZM51 438V581H194V438H51Z" horiz-adv-x="255" unicode=";"/><glyph d="M428 -12L5 234V357L428 602V439L181 296L428 152V-12Z" horiz-adv-x="473" unicode="&lt;"/><glyph d="M59 334V476H584V334H59ZM59 132V274H584V132H59Z" horiz-adv-x="638" unicode="="/><glyph d="M59 -14V151L306 294L59 436V600L483 356V232L59 -14Z" horiz-adv-x="475" unicode="&gt;"/><glyph d="M132 195V267Q132 326 173 367T273 409H480Q510 409 512 410T514 443V544Q514 574 512 576T480 578H31V720H513Q572 720 613 679T655 578V408Q655 350 614 308T513 266H309Q278 266 277 264T275 232V195H132ZM132 0V142H275V0H132Z" horiz-adv-x="678" unicode="?"/><glyph d="M196 0Q138 0 96 42T54 141V579Q54 637 96 678T196 720H622Q680 720 722 679T764 579V212H376Q317 212 284 245T251 337V395Q251 453 284 486T376 519H443Q501 519 534 486T567 395V319H622V544Q622 574 621 576T588 578H230Q200 578 198 576T196 544V176Q196 146 198 144T230 142H764V0H196ZM384 319H468V386Q468 416 467 418T434 420H384Q353 420 352 418T350 386V353Q350 323 351 321T384 319Z" horiz-adv-x="818" unicode="@"/><glyph d="M58 0V576Q58 636 100 678T202 720H634Q693 720 735 678T778 576V0H633V237H202V0H58ZM202 381H633V542Q633 572 631 574T599 576H235Q205 576 204 574T202 542V381Z" horiz-adv-x="836" unicode="A"/><glyph d="M59 0V720H607Q665 720 708 678T751 576V439Q751 425 749 414T743 391Q759 370 769 346T779 296V144Q779 84 737 42T635 0H59ZM236 144H600Q630 144 632 146T634 178V260Q634 290 632 292T600 294H236Q206 294 205 292T203 260V178Q203 148 204 146T236 144ZM236 438H571Q602 438 603 440T605 472V542Q605 572 604 574T571 576H236Q206 576 205 574T203 542V472Q203 442 204 440T236 438Z" horiz-adv-x="832" unicode="B"/><glyph d="M200 0Q140 0 98 42T56 144V576Q56 636 98 678T200 720H774V576H233Q203 576 202 574T200 542V178Q200 148 201 146T233 144H774V0H200Z" horiz-adv-x="822" unicode="C"/><glyph d="M58 0V720H634Q693 720 735 678T778 576V144Q778 84 736 42T634 0H58ZM235 144H599Q629 144 631 146T633 178V542Q633 572 631 574T599 576H235Q205 576 204 574T202 542V178Q202 148 203 146T235 144Z" horiz-adv-x="834" unicode="D"/><glyph d="M58 0V720H722V576H203V432H621V288H203V144H722V0H58Z" horiz-adv-x="766" unicode="E"/><glyph d="M58 0V720H722V576H203V432H621V288H203V0H58Z" horiz-adv-x="723" unicode="F"/><glyph d="M200 0Q140 0 98 42T56 144V576Q56 636 98 678T200 720H632Q691 720 733 678T776 576V514H631V542Q631 572 629 574T597 576H233Q203 576 202 574T200 542V178Q200 148 201 146T233 144H597Q627 144 629 146T631 178V269H471V414H776V144Q776 84 734 42T632 0H200Z" horiz-adv-x="830" unicode="G"/><glyph d="M57 0V720H201V432H649V720H792V0H649V288H201V0H57Z" horiz-adv-x="851" unicode="H"/><glyph d="M52 0V720H194V0H52Z" horiz-adv-x="214" unicode="I"/><glyph d="M148 0Q88 0 46 42T4 144V231H148V178Q148 148 149 146T181 144H545Q575 144 577 146T579 178V720H724V144Q724 84 682 42T580 0H148Z" horiz-adv-x="780" unicode="J"/><glyph d="M57 0V720H202V432H357L598 720H751V674L487 360L751 46V0H598L357 288H202V0H57Z" horiz-adv-x="797" unicode="K"/><glyph d="M57 0V721H201V144H777V0H57Z" horiz-adv-x="779" unicode="L"/><glyph d="M56 0V720H208L461 419L713 720H866V0H722V506L461 195L200 505V0H56Z" horiz-adv-x="928" unicode="M"/><glyph d="M56 0V720H208L631 217V720H776V0H624L200 505V0H56Z" horiz-adv-x="832" unicode="N"/><glyph d="M198 0Q138 0 96 42T54 144V576Q54 636 96 678T198 720H630Q689 720 731 678T774 576V144Q774 84 732 42T630 0H198ZM231 144H595Q625 144 627 146T629 178V542Q629 572 627 574T595 576H231Q201 576 200 574T198 542V178Q198 148 199 146T231 144Z" horiz-adv-x="828" unicode="O"/><glyph d="M56 0V719H632Q691 719 733 677T776 575V385Q776 327 734 285T632 242L200 241V0H56ZM233 386H597Q627 386 629 388T631 420V542Q631 572 629 573T597 575H233Q203 575 202 574T200 542V420Q200 390 201 388T233 386Z" horiz-adv-x="791" unicode="P"/><glyph d="M198 0Q138 0 96 42T54 144V576Q54 636 96 678T198 720H630Q689 720 731 678T774 576V144H858V0H198ZM231 144H595Q625 144 627 146T629 178V542Q629 572 627 574T595 576H231Q201 576 200 574T198 542V178Q198 148 199 146T231 144Z" horiz-adv-x="884" unicode="Q"/><glyph d="M55 0V719H631Q690 719 732 677T775 575V385Q775 327 733 285T631 242H608L774 45V0H623L420 242L199 241V0H55ZM232 386H596Q626 386 628 388T630 420V542Q630 572 628 573T596 575H232Q202 575 201 574T199 542V420Q199 390 200 388T232 386Z" horiz-adv-x="825" unicode="R"/><glyph d="M197 0Q138 0 96 42T54 144V205H197V178Q197 148 199 146T231 144H594Q625 144 626 146T628 178V254Q628 284 627 286T594 288H197Q138 288 96 330T54 431V576Q54 636 96 678T197 720H630Q688 720 731 678T774 576V515H628V542Q628 572 627 574T594 576H231Q201 576 199 574T197 542V466Q197 436 199 434T231 432H630Q688 432 731 390T774 289V144Q774 84 731 42T630 0H197Z" horiz-adv-x="827" unicode="S"/><glyph d="M308 0V576H20V720H740V576H452V0H308Z" horiz-adv-x="759" unicode="T"/><glyph d="M198 0Q138 0 96 42T54 144V720H198V178Q198 148 199 146T231 144H595Q625 144 627 146T629 178V720H774V144Q774 84 732 42T630 0H198Z" horiz-adv-x="828" unicode="U"/><glyph d="M452 0L35 720H202L514 179L826 720H992L576 0H452Z" horiz-adv-x="1003" unicode="V"/><glyph d="M297 0L35 720H188L353 268L518 720H654L821 268L986 720H1138L876 0H764L586 487L408 0H297Z" horiz-adv-x="1179" unicode="W"/><glyph d="M46 0V45L310 360L46 675V720H198L406 474L612 720H764V675L499 360L764 46V0H612L404 245L198 0H46Z" horiz-adv-x="812" unicode="X"/><glyph d="M350 0V269L17 720H188L422 425L655 720H828L494 268V0H350Z" horiz-adv-x="806" unicode="Y"/><glyph d="M51 0V152L556 576H51V720H771V568L266 144H771V0H51Z" horiz-adv-x="821" unicode="Z"/><glyph d="M54 0V720H256V578H196V142H256V0H54Z" horiz-adv-x="275" unicode="["/><glyph d="M473 0L5 575V720H52L519 147L520 0H473Z" horiz-adv-x="520" unicode="\"/><glyph d="M51 0V142H110V578H51V720H253V0H51Z" horiz-adv-x="276" unicode="]"/><glyph d="M54 -144V-2H764V-144H54Z" horiz-adv-x="828" unicode="_"/><glyph d="M88 766L40 959H185L233 766H88Z" horiz-adv-x="279" unicode="`"/><glyph d="M193 0Q135 0 94 42T52 141V361H498V404Q498 434 497 436T464 438H52V580H499Q558 580 599 538T640 439V0H193ZM228 142H498V235H194V176Q194 146 196 144T228 142Z" horiz-adv-x="694" unicode="a"/><glyph d="M54 0V770H196V580H501Q560 580 601 538T642 439V141Q642 84 601 42T501 0H54ZM230 142H467Q497 142 498 144T500 176V404Q500 434 499 436T467 438H230Q200 438 198 436T196 404V176Q196 146 198 144T230 142Z" horiz-adv-x="667" unicode="b"/><glyph d="M192 0Q135 0 93 42T51 141V439Q51 496 93 538T192 580H638V438H227Q197 438 195 436T193 404V176Q193 146 195 144T227 142H639V0H192Z" horiz-adv-x="695" unicode="c"/><glyph d="M164 0Q106 0 65 42T23 141V439Q23 496 64 538T164 580H470V770H612V0H164ZM200 142H436Q467 142 468 144T470 176V404Q470 434 469 436T436 438H200Q170 438 168 436T166 404V176Q166 146 168 144T200 142Z" horiz-adv-x="667" unicode="d"/><glyph d="M192 0Q135 0 93 42T51 141V439Q51 496 93 538T192 580H498Q557 580 598 538T639 439V219H193V176Q193 146 195 144T227 142H639V0H192ZM193 345H497V404Q497 434 496 436T463 438H227Q197 438 195 436T193 404V345Z" horiz-adv-x="692" unicode="e"/><glyph d="M53 0V629Q53 686 95 728T195 770H416V627H229Q199 627 197 626T195 594V580H416V438H195V0H53Z" horiz-adv-x="435" unicode="f"/><glyph d="M135 -229V-86H454Q485 -86 486 -84T488 -52V0H183Q125 0 83 42T41 141V439Q41 496 83 538T183 580H489Q547 580 588 538T630 439V-88Q630 -146 589 -187T489 -229H135ZM217 142H454Q485 142 486 144T488 176V404Q488 434 487 436T454 438H217Q187 438 185 436T183 404V176Q183 146 185 144T217 142Z" horiz-adv-x="683" unicode="g"/><glyph d="M54 0V770H196V580H501Q559 580 600 538T642 439V0H500V404Q500 434 499 436T467 438H230Q200 438 198 436T196 404V0H54Z" horiz-adv-x="668" unicode="h"/><glyph d="M52 0V580H194V0H52ZM52 627V770H194V627H52Z" horiz-adv-x="226" unicode="i"/><glyph d="M-187 -213V-70H30Q60 -70 62 -69T64 -37V580H206V-72Q206 -131 165 -172T64 -213H-187ZM64 627V770H206V627H64Z" horiz-adv-x="239" unicode="j"/><glyph d="M54 0V770H196V361H287L489 580H635V536L412 290L635 44V0H489L287 219H196V0H54Z" horiz-adv-x="646" unicode="k"/><glyph d="M193 0Q136 0 94 42T52 141V771H195V176Q195 146 196 144T229 142H315V0H193Z" horiz-adv-x="332" unicode="l"/><glyph d="M54 0V580H763Q821 580 862 538T904 439V0H763V404Q763 434 761 436T729 438H585Q555 438 553 436T551 404V0H408V404Q408 434 406 436T374 438H230Q200 438 198 436T196 404V0H54Z" horiz-adv-x="978" unicode="m"/><glyph d="M54 0V580H501Q560 580 601 538T642 439V0H500V404Q500 434 499 436T467 438H230Q200 438 198 436T196 404V0H54Z" horiz-adv-x="696" unicode="n"/><glyph d="M192 0Q135 0 93 42T51 141V439Q51 496 93 538T192 580H498Q557 580 598 538T639 439V141Q639 84 598 42T498 0H192ZM227 142H463Q494 142 495 144T497 176V404Q497 434 496 436T463 438H227Q197 438 195 436T193 404V176Q193 146 195 144T227 142Z" horiz-adv-x="692" unicode="o"/><glyph d="M54 -230V580H501Q560 580 601 538T642 439V141Q642 84 601 42T501 0H196V-230H54ZM230 142H467Q497 142 498 144T500 176V404Q500 434 499 436T467 438H230Q200 438 198 436T196 404V176Q196 146 198 144T230 142Z" horiz-adv-x="664" unicode="p"/><glyph d="M467 -230V0H161Q103 0 62 42T20 141V439Q20 496 61 538T161 580H609V-230H467ZM197 142H433Q464 142 465 144T467 176V404Q467 434 466 436T433 438H197Q167 438 165 436T163 404V176Q163 146 165 144T197 142Z" horiz-adv-x="664" unicode="q"/><glyph d="M52 0V439Q52 496 94 538T194 580H515V438H228Q198 438 196 436T194 404V0H52Z" horiz-adv-x="524" unicode="r"/><glyph d="M189 0Q132 0 90 42T48 141V167H190V162Q190 146 192 144T210 142H475Q491 142 492 144T494 162V199Q494 215 493 217T475 219H189Q132 219 90 260T48 360V439Q48 496 90 538T189 580H495Q554 580 595 538T637 439V413H494V418Q494 434 493 436T475 438H210Q194 438 192 436T190 418V381Q190 365 192 363T210 361H495Q554 361 595 320T637 220V141Q637 84 596 42T495 0H189Z" horiz-adv-x="686" unicode="s"/><glyph d="M195 0Q137 0 95 42T53 141V755H195V580H416V438H195V176Q195 146 197 144T229 142H416V0H195Z" horiz-adv-x="445" unicode="t"/><glyph d="M194 0Q136 0 95 42T53 141V580H195V176Q195 146 197 144T229 142H465Q496 142 497 144T499 176V580H641V141Q641 84 600 42T500 0H194Z" horiz-adv-x="695" unicode="u"/><glyph d="M340 0L21 580H185L403 177L622 580H786L466 0H340Z" horiz-adv-x="790" unicode="v"/><glyph d="M263 0L35 580H186L318 259L458 580H600L749 255L873 580H1023L805 0H696L530 367L371 0H263Z" horiz-adv-x="1056" unicode="w"/><glyph d="M46 0V42L253 295L46 538V580H195L345 404L493 580H643V538L437 295L643 42V0H494L345 183L195 0H46Z" horiz-adv-x="692" unicode="x"/><glyph d="M136 -211V-68H455Q486 -68 487 -67T489 -35V0H184Q126 0 84 42T42 141V578H184V176Q184 146 186 144T218 142H455Q486 142 487 144T489 176V578H631V-70Q631 -129 590 -170T490 -211H136Z" horiz-adv-x="685" unicode="y"/><glyph d="M54 0V150L427 438H54V580H642V430L270 142H642V0H54Z" horiz-adv-x="698" unicode="z"/><glyph d="M206 0Q148 0 106 42T64 141V281L23 305V430L64 453V579Q64 637 106 678T206 720H266V578H240Q210 578 208 576T206 544V409L155 367L206 325V176Q206 146 208 144T240 142H266V0H206Z" horiz-adv-x="289" unicode="{"/><glyph d="M54 -101V810H196V-101H54Z" horiz-adv-x="214" unicode="|"/><glyph d="M51 0V142H77Q107 142 109 144T111 176V324L162 367L111 409V544Q111 574 109 576T77 578H51V720H110Q169 720 211 679T253 579V453L293 429V306L253 280V141Q253 84 211 42T110 0H51Z" horiz-adv-x="289" unicode="}"/><glyph d="M300 215Q264 215 204 246T109 278Q71 278 24 244V361Q73 382 114 382Q152 382 218 350T309 318Q341 318 393 351V239Q337 215 300 215Z" horiz-adv-x="404" unicode="~"/><glyph horiz-adv-x="314"/><glyph d="M53 0V525H195V0H53ZM53 567V709H195V567H53Z" horiz-adv-x="210" unicode="¡"/><glyph d="M290 -101V0H175Q117 0 75 42T33 141V448Q33 506 75 548T175 590H290V708H433V590H621V446H433V142H621V0H433V-101H290ZM209 142H290V446H209Q179 446 177 445T175 412V176Q175 146 177 144T209 142Z" horiz-adv-x="636" unicode="¢"/><glyph d="M39 0V142H131V284H39V426H131V579Q131 637 173 678T273 720H540Q599 720 640 679T682 579V529H539V544Q539 574 537 576T505 578H307Q277 578 275 576T273 544V426H583V284H273V142H682V0H39Z" horiz-adv-x="734" unicode="£"/><glyph d="M345 766V909H488V766H345ZM137 766V909H279V766H137Z" horiz-adv-x="551" unicode="¨"/><glyph d="M187 352Q129 352 87 394T45 494V568Q45 627 87 668T187 709H270Q328 709 370 668T412 568V494Q412 436 370 394T270 352H187ZM202 476H254Q285 476 286 478T288 510V552Q288 582 287 584T254 586H202Q172 586 171 584T169 552V510Q169 480 170 478T202 476Z" horiz-adv-x="439" unicode="°"/><glyph d="M33 766L82 959H226L178 766H33Z" horiz-adv-x="213" unicode="´"/><glyph d="M421 0V238H198Q140 238 98 280T56 379V566Q56 624 98 666T198 708H783V0H641V238H564V0H421ZM232 381H421V565H232Q202 565 200 564T198 531V415Q198 384 200 383T232 381ZM564 381H641V565H564V381Z" horiz-adv-x="833" unicode="¶"/><glyph d="M41 -150L89 42H234L186 -150H41Z" horiz-adv-x="229" unicode="¸"/><glyph d="M161 0Q103 0 61 42T19 141V312Q19 371 61 412T161 454H367Q397 454 398 455T400 488V531H542V453Q542 395 501 353T400 311H195Q165 311 163 309T161 277V176Q161 146 163 144T195 142H644V0H161ZM400 567V709H542V567H400Z" horiz-adv-x="675" unicode="¿"/><glyph d="M350 785L302 978H447L495 785H350ZM58 0V576Q58 636 100 678T202 720H634Q693 720 735 678T778 576V0H633V237H202V0H58ZM202 381H633V542Q633 572 631 574T599 576H235Q205 576 204 574T202 542V381Z" horiz-adv-x="836" unicode="À"/><glyph d="M336 784L384 977H529L481 784H336ZM58 0V576Q58 636 100 678T202 720H634Q693 720 735 678T778 576V0H633V237H202V0H58ZM202 381H633V542Q633 572 631 574T599 576H235Q205 576 204 574T202 542V381Z" horiz-adv-x="833" unicode="Á"/><glyph d="M390 784H271L375 957H468L572 784H452L420 834L390 784ZM58 0V576Q58 636 100 678T202 720H634Q693 720 735 678T778 576V0H633V237H202V0H58ZM202 381H633V542Q633 572 631 574T599 576H235Q205 576 204 574T202 542V381Z" horiz-adv-x="833" unicode="Â"/><glyph d="M482 789Q446 789 389 820T289 852Q247 852 208 821V933Q253 957 298 957Q336 957 393 925T486 893Q524 893 578 927V813Q519 789 482 789ZM58 0V576Q58 636 100 678T202 720H634Q693 720 735 678T778 576V0H633V237H202V0H58ZM202 381H633V542Q633 572 631 574T599 576H235Q205 576 204 574T202 542V381Z" horiz-adv-x="836" unicode="Ã"/><glyph d="M453 783V926H596V783H453ZM245 783V926H387V783H245ZM58 0V576Q58 636 100 678T202 720H634Q693 720 735 678T778 576V0H633V237H202V0H58ZM202 381H633V542Q633 572 631 574T599 576H235Q205 576 204 574T202 542V381Z" horiz-adv-x="836" unicode="Ä"/><glyph d="M379 779Q349 779 328 800T306 851V901Q306 931 327 952T379 973H431Q460 973 481 952T503 901V851Q503 822 482 801T431 779H379ZM392 843H418Q432 843 432 843T433 858V886Q433 900 433 900T418 901H392Q378 901 378 901T377 886V858Q377 844 377 844T392 843ZM58 0V576Q58 636 100 678T202 720H634Q693 720 735 678T778 576V0H633V237H202V0H58ZM202 381H633V542Q633 572 631 574T599 576H235Q205 576 204 574T202 542V381Z" horiz-adv-x="836" unicode="Å"/><glyph d="M54 0V576Q54 636 96 678T198 720H1293V576H774V432H1191V288H774V144H1293V0H630V237H199V0H54ZM199 381H630V542Q630 572 629 574T597 576H233Q203 576 201 574T199 542V381Z" horiz-adv-x="1375" unicode="Æ"/><glyph d="M329 -153L374 0H200Q140 0 98 42T56 144V576Q56 636 98 678T200 720H774V576H233Q203 576 202 574T200 542V178Q200 148 201 146T233 144H774V0H519L474 -153H329Z" horiz-adv-x="822" unicode="Ç"/><glyph d="M332 785L284 978H429L477 785H332ZM58 0V720H722V576H203V432H621V288H203V144H722V0H58Z" horiz-adv-x="766" unicode="È"/><glyph d="M309 785L358 978H502L454 785H309ZM58 0V720H722V576H203V432H621V288H203V144H722V0H58Z" horiz-adv-x="766" unicode="É"/><glyph d="M234 785L338 959H434L539 785H418L385 835L354 785H234ZM58 0V720H722V576H203V432H621V288H203V144H722V0H58Z" horiz-adv-x="766" unicode="Ê"/><glyph d="M425 785V928H568V785H425ZM216 785V928H359V785H216ZM58 0V720H722V576H203V432H621V288H203V144H722V0H58Z" horiz-adv-x="766" unicode="Ë"/><glyph d="M80 785L31 978H176L225 785H80ZM87 0V720H229V0H87Z" horiz-adv-x="214" unicode="Ì"/><glyph d="M37 785L85 978H230L182 785H37ZM41 0V720H186V0H41Z" horiz-adv-x="214" unicode="Í"/><glyph d="M-15 784L89 957H183L287 784H167L134 834L104 784H-15ZM58 0V720H200V0H58Z" horiz-adv-x="214" unicode="Î"/><glyph d="M176 785V928H319V785H176ZM-33 785V928H110V785H-33ZM68 0V720H213V0H68Z" horiz-adv-x="214" unicode="Ï"/><glyph d="M497 789Q460 789 404 820T304 852Q262 852 223 821V933Q278 957 313 957Q360 957 417 925T501 893Q539 893 593 927V813Q535 789 497 789ZM56 0V720H208L631 217V720H776V0H624L200 505V0H56Z" horiz-adv-x="832" unicode="Ñ"/><glyph d="M355 785L306 978H451L500 785H355ZM198 0Q138 0 96 42T54 144V576Q54 636 96 678T198 720H630Q689 720 731 678T774 576V144Q774 84 732 42T630 0H198ZM231 144H595Q625 144 627 146T629 178V542Q629 572 627 574T595 576H231Q201 576 200 574T198 542V178Q198 148 199 146T231 144Z" horiz-adv-x="828" unicode="Ò"/><glyph d="M340 785L389 978H533L485 785H340ZM198 0Q138 0 96 42T54 144V576Q54 636 96 678T198 720H630Q689 720 731 678T774 576V144Q774 84 732 42T630 0H198ZM231 144H595Q625 144 627 146T629 178V542Q629 572 627 574T595 576H231Q201 576 200 574T198 542V178Q198 148 199 146T231 144Z" horiz-adv-x="828" unicode="Ó"/><glyph d="M266 785L370 958H463L567 785H448L415 835L385 785H266ZM198 0Q138 0 96 42T54 144V576Q54 636 96 678T198 720H630Q689 720 731 678T774 576V144Q774 84 732 42T630 0H198ZM231 144H595Q625 144 627 146T629 178V542Q629 572 627 574T595 576H231Q201 576 200 574T198 542V178Q198 148 199 146T231 144Z" horiz-adv-x="828" unicode="Ô"/><glyph d="M487 789Q452 789 395 820T293 852Q253 852 213 821V933Q271 957 303 957Q340 957 400 926T490 893Q528 893 582 927V813Q524 789 487 789ZM198 0Q138 0 96 42T54 144V576Q54 636 96 678T198 720H630Q689 720 731 678T774 576V144Q774 84 732 42T630 0H198ZM231 144H595Q625 144 627 146T629 178V542Q629 572 627 574T595 576H231Q201 576 200 574T198 542V178Q198 148 199 146T231 144Z" horiz-adv-x="828" unicode="Õ"/><glyph d="M450 785V928H593V785H450ZM242 785V928H385V785H242ZM198 0Q138 0 96 42T54 144V576Q54 636 96 678T198 720H630Q689 720 731 678T774 576V144Q774 84 732 42T630 0H198ZM231 144H595Q625 144 627 146T629 178V542Q629 572 627 574T595 576H231Q201 576 200 574T198 542V178Q198 148 199 146T231 144Z" horiz-adv-x="828" unicode="Ö"/><glyph d="M53 84L54 127L187 300L53 472V514H203L277 413L352 514H502V471L368 300L502 127V84H352L277 185L202 84H53Z" horiz-adv-x="546" unicode="×"/><glyph d="M355 785L306 978H451L500 785H355ZM198 0Q138 0 96 42T54 144V720H198V178Q198 148 199 146T231 144H595Q625 144 627 146T629 178V720H774V144Q774 84 732 42T630 0H198Z" horiz-adv-x="828" unicode="Ù"/><glyph d="M323 785L372 978H517L468 785H323ZM198 0Q138 0 96 42T54 144V720H198V178Q198 148 199 146T231 144H595Q625 144 627 146T629 178V720H774V144Q774 84 732 42T630 0H198Z" horiz-adv-x="828" unicode="Ú"/><glyph d="M267 784L371 957H464L568 784H448L416 834L385 784H267ZM198 0Q138 0 96 42T54 144V720H198V178Q198 148 199 146T231 144H595Q625 144 627 146T629 178V720H774V144Q774 84 732 42T630 0H198Z" horiz-adv-x="828" unicode="Û"/><glyph d="M449 785V928H592V785H449ZM240 785V928H383V785H240ZM198 0Q138 0 96 42T54 144V720H198V178Q198 148 199 146T231 144H595Q625 144 627 146T629 178V720H774V144Q774 84 732 42T630 0H198Z" horiz-adv-x="828" unicode="Ü"/><glyph d="M329 785L378 978H522L474 785H329ZM350 0V269L17 720H188L422 425L655 720H828L494 268V0H350Z" horiz-adv-x="806" unicode="Ý"/><glyph d="M57 0V579Q57 637 99 678T199 720H625Q677 720 717 687T767 604V435Q767 418 762 399T748 364Q758 347 762 330T767 294V141Q767 84 725 42T625 0H275V142H591Q622 142 623 144T625 176V259Q625 289 624 290T591 292H275V425H591Q622 425 623 427T625 459V543Q625 573 624 575T591 577H233Q203 577 201 575T199 543V0H57Z" horiz-adv-x="833" unicode="ß"/><glyph d="M311 657L263 850H408L456 657H311ZM193 0Q135 0 94 42T52 141V361H498V404Q498 434 497 436T464 438H52V580H499Q558 580 599 538T640 439V0H193ZM228 142H498V235H194V176Q194 146 196 144T228 142Z" horiz-adv-x="725" unicode="à"/><glyph d="M193 0Q135 0 94 42T52 141V361H498V404Q498 434 497 436T464 438H52V580H499Q558 580 599 538T640 439V0H193ZM228 142H498V235H194V176Q194 146 196 144T228 142ZM279 659L330 852H475L424 659H279Z" horiz-adv-x="725" unicode="á"/><glyph d="M215 657L319 831H412L516 657H396L364 708L333 657H215ZM193 0Q135 0 94 42T52 141V361H498V404Q498 434 497 436T464 438H52V580H499Q558 580 599 538T640 439V0H193ZM228 142H498V235H194V176Q194 146 196 144T228 142Z" horiz-adv-x="725" unicode="â"/><glyph d="M418 660Q383 660 325 692T224 724Q183 724 144 692V804Q196 829 234 829Q271 829 328 797T422 765Q462 765 513 799V685Q455 660 418 660ZM193 0Q135 0 94 42T52 141V361H498V404Q498 434 497 436T464 438H52V580H499Q558 580 599 538T640 439V0H193ZM228 142H498V235H194V176Q194 146 196 144T228 142Z" horiz-adv-x="725" unicode="ã"/><glyph d="M389 657V800H532V657H389ZM181 657V800H323V657H181ZM193 0Q135 0 94 42T52 141V361H498V404Q498 434 497 436T464 438H52V580H499Q558 580 599 538T640 439V0H193ZM228 142H498V235H194V176Q194 146 196 144T228 142Z" horiz-adv-x="725" unicode="ä"/><glyph d="M289 650Q260 650 238 671T216 723V773Q216 802 238 823T289 845H341Q371 845 392 824T414 773V723Q414 693 393 672T341 650H289ZM302 715H328Q342 715 342 715T342 730V758Q342 772 342 772T328 773H302Q288 773 288 773T287 758V730Q287 716 287 716T302 715ZM193 0Q135 0 94 42T52 141V361H498V404Q498 434 497 436T464 438H52V580H499Q558 580 599 538T640 439V0H193ZM228 142H498V235H194V176Q194 146 196 144T228 142Z" horiz-adv-x="725" unicode="å"/><glyph d="M194 0Q136 0 95 42T53 141V361H500V404Q500 434 499 436T466 438H53V580H948Q1007 580 1047 538T1088 439V219H642V175Q642 145 644 144T676 142H1088V0H194ZM229 142H500V235H195V176Q195 146 197 144T229 142ZM642 345H947V404Q947 434 945 436T913 438H676Q646 438 644 436T642 404V345Z" horiz-adv-x="1178" unicode="æ"/><glyph d="M274 -130L312 0H192Q135 0 93 42T51 141V439Q51 496 93 538T192 580H638V438H227Q197 438 195 436T193 404V176Q193 146 195 144T227 142H639V0H406L368 -130H274Z" horiz-adv-x="693" unicode="ç"/><glyph d="M294 657L245 850H390L439 657H294ZM192 0Q135 0 93 42T51 141V439Q51 496 93 538T192 580H498Q557 580 598 538T639 439V219H193V176Q193 146 195 144T227 142H639V0H192ZM193 345H497V404Q497 434 496 436T463 438H227Q197 438 195 436T193 404V345Z" horiz-adv-x="638" unicode="è"/><glyph d="M262 658L310 851H455L407 658H262ZM192 0Q135 0 93 42T51 141V439Q51 496 93 538T192 580H498Q557 580 598 538T639 439V219H193V176Q193 146 195 144T227 142H639V0H192ZM193 345H497V404Q497 434 496 436T463 438H227Q197 438 195 436T193 404V345Z" horiz-adv-x="638" unicode="é"/><glyph d="M198 657L302 831H396L500 657H380L348 708L317 657H198ZM192 0Q135 0 93 42T51 141V439Q51 496 93 538T192 580H498Q557 580 598 538T639 439V219H193V176Q193 146 195 144T227 142H639V0H192ZM193 345H497V404Q497 434 496 436T463 438H227Q197 438 195 436T193 404V345Z" horiz-adv-x="638" unicode="ê"/><glyph d="M392 657V800H535V657H392ZM184 657V800H326V657H184ZM192 0Q135 0 93 42T51 141V439Q51 496 93 538T192 580H498Q557 580 598 538T639 439V219H193V176Q193 146 195 144T227 142H639V0H192ZM193 345H497V404Q497 434 496 436T463 438H227Q197 438 195 436T193 404V345Z" horiz-adv-x="638" unicode="ë"/><glyph d="M65 658L16 851H161L210 658H65ZM56 0V580H198V0H56Z" horiz-adv-x="214" unicode="ì"/><glyph d="M49 657L98 850H242L194 657H49ZM52 0V580H194V0H52Z" horiz-adv-x="214" unicode="í"/><glyph d="M-15 657L89 831H183L287 657H167L134 708L104 657H-15ZM51 0V580H193V0H51Z" horiz-adv-x="214" unicode="î"/><glyph d="M176 659V802H319V659H176ZM-32 659V802H110V659H-32ZM55 0L56 580H198L197 0H55Z" horiz-adv-x="214" unicode="ï"/><glyph d="M407 660Q372 660 315 692T214 724Q172 724 133 692V804Q185 828 223 828Q260 828 317 797T411 765Q451 765 503 799V684Q444 660 407 660ZM54 0V580H501Q560 580 601 538T642 439V0H500V404Q500 434 499 436T467 438H230Q200 438 198 436T196 404V0H54Z" horiz-adv-x="708" unicode="ñ"/><glyph d="M295 658L247 851H392L440 658H295ZM192 0Q135 0 93 42T51 141V439Q51 496 93 538T192 580H498Q557 580 598 538T639 439V141Q639 84 598 42T498 0H192ZM227 142H463Q494 142 495 144T497 176V404Q497 434 496 436T463 438H227Q197 438 195 436T193 404V176Q193 146 195 144T227 142Z" horiz-adv-x="692" unicode="ò"/><glyph d="M264 658L312 851H457L409 658H264ZM192 0Q135 0 93 42T51 141V439Q51 496 93 538T192 580H498Q557 580 598 538T639 439V141Q639 84 598 42T498 0H192ZM227 142H463Q494 142 495 144T497 176V404Q497 434 496 436T463 438H227Q197 438 195 436T193 404V176Q193 146 195 144T227 142Z" horiz-adv-x="692" unicode="ó"/><glyph d="M199 657L303 831H396L500 657H380L348 708L317 657H199ZM192 0Q135 0 93 42T51 141V439Q51 496 93 538T192 580H498Q557 580 598 538T639 439V141Q639 84 598 42T498 0H192ZM227 142H463Q494 142 495 144T497 176V404Q497 434 496 436T463 438H227Q197 438 195 436T193 404V176Q193 146 195 144T227 142Z" horiz-adv-x="692" unicode="ô"/><glyph d="M419 659Q384 659 326 691T225 723Q184 723 145 691V803Q197 828 235 828Q272 828 329 796T423 764Q463 764 514 798V684Q456 659 419 659ZM192 0Q135 0 93 42T51 141V439Q51 496 93 538T192 580H498Q557 580 598 538T639 439V141Q639 84 598 42T498 0H192ZM227 142H463Q494 142 495 144T497 176V404Q497 434 496 436T463 438H227Q197 438 195 436T193 404V176Q193 146 195 144T227 142Z" horiz-adv-x="692" unicode="õ"/><glyph d="M381 659V802H524V659H381ZM173 659V802H315V659H173ZM192 0Q135 0 93 42T51 141V439Q51 496 93 538T192 580H498Q557 580 598 538T639 439V141Q639 84 598 42T498 0H192ZM227 142H463Q494 142 495 144T497 176V404Q497 434 496 436T463 438H227Q197 438 195 436T193 404V176Q193 146 195 144T227 142Z" horiz-adv-x="692" unicode="ö"/><glyph d="M9 242V384H496V242H9ZM188 0V142H330V0H188ZM188 467V610H330V467H188Z" horiz-adv-x="517" unicode="÷"/><glyph d="M288 658L239 851H384L433 658H288ZM194 0Q136 0 95 42T53 141V580H195V176Q195 146 197 144T229 142H465Q496 142 497 144T499 176V580H641V141Q641 84 600 42T500 0H194Z" horiz-adv-x="695" unicode="ù"/><glyph d="M273 658L322 851H466L418 658H273ZM194 0Q136 0 95 42T53 141V580H195V176Q195 146 197 144T229 142H465Q496 142 497 144T499 176V580H641V141Q641 84 600 42T500 0H194Z" horiz-adv-x="695" unicode="ú"/><glyph d="M191 658L295 832H389L493 658H373L340 709L310 658H191ZM194 0Q136 0 95 42T53 141V580H195V176Q195 146 197 144T229 142H465Q496 142 497 144T499 176V580H641V141Q641 84 600 42T500 0H194Z" horiz-adv-x="695" unicode="û"/><glyph d="M391 657V800H533V657H391ZM183 657V800H325V657H183ZM194 0Q136 0 95 42T53 141V580H195V176Q195 146 197 144T229 142H465Q496 142 497 144T499 176V580H641V141Q641 84 600 42T500 0H194Z" horiz-adv-x="695" unicode="ü"/><glyph d="M267 658L316 851H461L412 658H267ZM136 -211V-68H455Q486 -68 487 -67T489 -35V0H184Q126 0 84 42T42 141V578H184V176Q184 146 186 144T218 142H455Q486 142 487 144T489 176V578H631V-70Q631 -129 590 -170T490 -211H136Z" horiz-adv-x="685" unicode="ý"/><glyph d="M384 659V802H527V659H384ZM176 659V802H318V659H176ZM136 -211V-68H455Q486 -68 487 -67T489 -35V0H184Q126 0 84 42T42 141V578H184V176Q184 146 186 144T218 142H455Q486 142 487 144T489 176V578H631V-70Q631 -129 590 -170T490 -211H136Z" horiz-adv-x="685" unicode="ÿ"/><glyph d="M54 224V366H652V224H54Z" horiz-adv-x="708" unicode="–"/><glyph d="M54 224V366H759V224H54Z" horiz-adv-x="822" unicode="—"/><glyph d="M34 447V569Q34 622 74 662T176 713V447H34Z" horiz-adv-x="229" unicode="‘"/><glyph d="M54 444V708H196V588Q196 536 155 496T54 444Z" horiz-adv-x="227" unicode="’"/><glyph d="M45 448V570Q45 622 86 662T187 713V448H45ZM255 447V569Q255 621 296 661T397 712V447H255Z" horiz-adv-x="450" unicode="“"/><glyph d="M54 444V708H197V588Q197 536 156 496T54 444ZM264 444V708H406V588Q406 536 365 496T264 444Z" horiz-adv-x="450" unicode="”"/><glyph d="M174 286Q145 286 130 301T114 345V364Q114 393 129 408T174 424H195Q225 424 240 409T256 364V345Q256 316 241 301T195 286H174Z" horiz-adv-x="371" unicode="•"/></font>
</defs>
</svg>
