<svg xmlns="http://www.w3.org/2000/svg" xmlns:xlink="http://www.w3.org/1999/xlink" id="Capa_1" x="0" y="0" version="1.1" viewBox="0 0 512 512" xml:space="preserve" style="enable-background:new 0 0 512 512"><circle style="fill:#05cdff" cx="256" cy="256" r="256"/><path style="fill:#0485bd" d="M510.758,230.723L399.136,119.101l-154.932,18.415v15.228l-13.61-13.61l-117.73,13.993v97.031	l13.61,13.61h-13.61v95.104l152.923,152.923C402.634,506.649,512,394.106,512,256C512,247.47,511.573,239.039,510.758,230.723z"/><g><polygon style="fill:#fff" points="230.594 250.159 230.594 139.134 112.864 153.128 112.864 250.159"/><polygon style="fill:#fff" points="244.204 250.159 399.137 250.159 399.137 119.101 244.204 137.516"/><polygon style="fill:#fff" points="230.594 263.769 112.864 263.769 112.864 358.873 230.594 372.866"/><polygon style="fill:#fff" points="244.204 263.769 244.204 374.483 399.137 392.899 399.137 263.769"/></g></svg>